<?xml version="1.0" encoding="utf-8"?>
<!-- Generator: Adobe Illustrator 16.0.0, SVG Export Plug-In . SVG Version: 6.00 Build 0)  -->
<!DOCTYPE svg PUBLIC "-//W3C//DTD SVG 1.1//EN" "http://www.w3.org/Graphics/SVG/1.1/DTD/svg11.dtd">
<svg version="1.1" id="Layer_1" xmlns="http://www.w3.org/2000/svg" xmlns:xlink="http://www.w3.org/1999/xlink" x="0px" y="0px"
	 width="512px" height="512px" viewBox="0 0 512 512" enable-background="new 0 0 512 512" xml:space="preserve">
<g id="_x33__food_x2C__pocket_x2C__purchase_x2C__shop_x2C__shopping_x2C__commerce_x2C__supermarket_1_">
	<g>
		<polygon fill="#CC9976" points="124.021,132.022 411.974,132.022 379.979,156.018 92.025,156.018 		"/>
	</g>
	<g>
		<rect x="172.013" y="100.027" fill="#5D9CEC" width="79.987" height="52.241"/>
	</g>
	<g>
		<path fill="#A0D468" d="M92.025,20.04L110.19,148.02l28.66,7.936C138.85,155.956,112.022,48.035,92.025,20.04z"/>
	</g>
	<g>
		<path fill="#A0D468" d="M116.021,20.04l-7.979,32.909L138.85,156.85l21.165-8.83C141.721,72.25,116.021,20.04,116.021,20.04z"/>
	</g>
	<g>
		<path fill="#FFCE54" d="M366.903,8.05c-26.98-9.819-54.976-0.961-62.529,19.802l-43.5,120.168l22.121,7.249l24.996-7.249
			l22.863,7.936l41.657-3.312l21.575-89.228C401.64,42.646,393.899,17.868,366.903,8.05z"/>
	</g>
	<g>
		<path fill="#FFD2A6" d="M379.979,156.018c0,0-15.998-7.999-23.996-7.999c-7.999,0-15.998,7.999-23.996,7.999
			c-7.999,0-15.998-7.999-23.996-7.999c-7.999,0-15.998,7.999-23.996,7.999c-7.999,0-15.998-7.999-23.996-7.999
			c-7.999,0-15.998,7.999-23.997,7.999s-15.998-7.999-23.996-7.999s-15.998,7.999-23.996,7.999s-15.998-7.999-23.996-7.999
			s-15.998,7.999-23.996,7.999s-15.998-7.999-23.997-7.999c-7.998,0-23.996,7.999-23.996,7.999L76.028,507.965h319.948
			L379.979,156.018z"/>
	</g>
	<g opacity="0.2">
		<path d="M110.19,148.02l28.371,7.858l0.289,0.972l21.165-8.83c-0.562-2.324-1.148-4.554-1.722-6.835
			c-6.093,2.214-12.182,6.835-18.274,6.835c-7.999,0-15.998-7.999-23.997-7.999c-1.913,0-4.3,0.477-6.799,1.172L110.19,148.02z"/>
	</g>
	<g opacity="0.3">
		<path fill="#FFFFFF" d="M116.021,140.021c0.352,0,0.699,0.09,1.051,0.121l-14.037-98.886c-3.761-8.854-7.491-16.287-11.01-21.215
			L110.19,148.02l-0.968-6.827C111.722,140.497,114.108,140.021,116.021,140.021z"/>
	</g>
	<g opacity="0.2">
		<path d="M252,142.126c-5.331,2.371-10.666,5.894-15.998,5.894c-7.999,0-15.998-7.999-23.996-7.999s-15.998,7.999-23.996,7.999
			c-5.332,0-10.667-3.523-15.998-5.894v10.143H252V142.126z"/>
	</g>
	<g opacity="0.2">
		<path d="M307.991,148.02l22.863,7.936l41.657-3.312l1.75-7.253c-5.382-2.331-13.342-5.37-18.278-5.37
			c-7.999,0-15.998,7.999-23.996,7.999c-7.999,0-15.998-7.999-23.996-7.999c-7.999,0-15.998,7.999-23.996,7.999
			c-6.804,0-13.607-5.749-20.415-7.479l-2.706,7.479l22.121,7.249L307.991,148.02z"/>
	</g>
	<g opacity="0.1">
		<g>
			<path d="M366.903,8.05c-10.295-3.746-20.73-4.757-30.128-3.441c4.671,0.613,9.413,1.722,14.13,3.441
				c26.996,9.818,34.737,34.596,27.184,55.366l-18.622,77.03c4.71,0.871,10.53,3.097,14.795,4.944l-1.75,7.253l21.575-89.228
				C401.64,42.646,393.899,17.868,366.903,8.05z"/>
		</g>
	</g>
	<g opacity="0.4">
		<path fill="#FFFFFF" d="M277.41,146.523l42.962-118.672c4.671-12.842,17.169-21.11,32.4-23.243
			c-22.012-2.882-42.165,6.112-48.398,23.243L263.58,140.54C268.192,141.712,272.802,144.699,277.41,146.523z"/>
	</g>
	<g>
		<polygon fill="#F2C397" points="411.974,132.022 435.97,483.969 395.977,507.965 379.979,156.018 		"/>
	</g>
	<g opacity="0.5">
		<path fill="#FFFFFF" d="M123.255,149.796c-2.41-1.019-4.823-1.777-7.233-1.777c-7.998,0-23.996,7.999-23.996,7.999L76.028,507.965
			h15.997l15.998-351.947C108.023,156.018,115.823,152.151,123.255,149.796z"/>
	</g>
	<g opacity="0.2">
		<polygon points="419.973,459.973 395.977,507.965 435.97,483.969 		"/>
	</g>
	<g>
		<circle fill="#ED5565" cx="236.003" cy="331.994" r="71.989"/>
	</g>
	<g opacity="0.2">
		<path d="M236.002,260.001c-2.707,0-5.37,0.18-7.999,0.469c35.99,3.987,63.989,34.468,63.989,71.524
			c0,37.048-27.999,67.535-63.989,71.52c2.628,0.289,5.292,0.469,7.999,0.469c39.759,0,71.989-32.229,71.989-71.988
			C307.991,292.234,275.762,260.001,236.002,260.001z"/>
	</g>
	<g opacity="0.3">
		<path fill="#FFFFFF" d="M180.012,331.994c0-37.057,27.999-67.537,63.989-71.524c-2.628-0.289-5.292-0.469-7.999-0.469
			c-39.759,0-71.988,32.233-71.988,71.993c0,39.759,32.229,71.988,71.988,71.988c2.707,0,5.371-0.18,7.999-0.469
			C208.011,399.529,180.012,369.042,180.012,331.994z"/>
	</g>
	<g>
		<polygon fill="#E6E9ED" points="244.001,84.03 180.012,84.03 172.013,92.028 172.013,100.027 252,100.027 252,92.028 		"/>
	</g>
	<g>
		<circle fill="#E6E9ED" cx="212.006" cy="132.022" r="15.998"/>
	</g>
	<g opacity="0.2">
		<path d="M136.706,147.582c1.102,0.262,2.207,0.438,3.312,0.438c1.429,0,2.855-0.293,4.285-0.711L110.374,43.325l-2.331,9.624
			l1.246,4.21C121.138,89.369,132.207,130.323,136.706,147.582z"/>
	</g>
	<g opacity="0.3">
		<path fill="#FFFFFF" d="M180.012,100.027h-7.999v42.099c2.664,1.183,5.331,2.659,7.999,3.835V100.027z"/>
	</g>
	<g opacity="0.2">
		<path d="M244.001,100.027v45.934c2.668-1.176,5.335-2.652,7.999-3.835v-42.099H244.001z"/>
	</g>
	<g id="_x33__food_x2C__pocket_x2C__purchase_x2C__shop_x2C__shopping_x2C__commerce_x2C__supermarket">
		<g>
			<path fill="#3A3847" d="M395.977,511.965H76.028c-1.094,0-2.137-0.445-2.89-1.242c-0.758-0.789-1.156-1.852-1.105-2.938
				L88.03,155.838c0.066-1.449,0.91-2.75,2.207-3.398c1.722-0.863,17.095-8.42,25.785-8.42c4.945,0,9.44,2.25,13.787,4.421
				c3.679,1.839,7.151,3.577,10.206,3.577s6.53-1.738,10.209-3.577c4.351-2.172,8.846-4.421,13.787-4.421
				c4.94,0,9.436,2.25,13.787,4.421c3.679,1.839,7.155,3.577,10.209,3.577s6.53-1.738,10.209-3.577
				c4.351-2.172,8.846-4.421,13.787-4.421s9.436,2.246,13.787,4.421c3.68,1.839,7.159,3.577,10.213,3.577s6.53-1.738,10.209-3.577
				c4.347-2.172,8.842-4.421,13.787-4.421c4.944,0,9.436,2.25,13.786,4.421c3.68,1.839,7.155,3.577,10.21,3.577
				c3.054,0,6.529-1.738,10.209-3.577c4.351-2.172,8.842-4.421,13.787-4.421c4.944,0,9.436,2.25,13.787,4.421
				c3.679,1.839,7.154,3.577,10.209,3.577c3.054,0,6.53-1.738,10.209-3.577c4.351-2.172,8.842-4.421,13.787-4.421
				c8.693,0,24.059,7.557,25.785,8.42c1.296,0.648,2.14,1.949,2.202,3.398l15.997,351.947c0.055,1.086-0.344,2.148-1.101,2.938
				C398.117,511.52,397.07,511.965,395.977,511.965z M80.215,503.966H391.79l-15.701-345.382c-5.28-2.468-15.106-6.565-20.105-6.565
				c-3.055,0-6.53,1.738-10.209,3.578c-4.352,2.171-8.843,4.421-13.787,4.421c-4.945,0-9.437-2.25-13.787-4.421
				c-3.68-1.839-7.155-3.578-10.209-3.578c-3.055,0-6.53,1.738-10.21,3.578c-4.351,2.171-8.842,4.421-13.786,4.421
				c-4.945,0-9.437-2.25-13.787-4.421c-3.68-1.839-7.155-3.578-10.209-3.578c-3.055,0-6.53,1.738-10.21,3.578
				c-4.347,2.171-8.842,4.421-13.787,4.421c-4.944,0-9.44-2.25-13.791-4.421c-3.679-1.839-7.155-3.578-10.209-3.578
				s-6.53,1.738-10.209,3.578c-4.351,2.171-8.846,4.421-13.787,4.421s-9.436-2.25-13.787-4.421
				c-3.68-1.839-7.155-3.578-10.209-3.578s-6.53,1.738-10.209,3.578c-4.351,2.171-8.846,4.421-13.787,4.421
				c-4.941,0-9.436-2.246-13.783-4.421c-3.68-1.839-7.155-3.578-10.21-3.578c-4.577,0-13.97,3.687-20.109,6.562L80.215,503.966z"/>
		</g>
		<g>
			<path fill="#3A3847" d="M379.979,495.967H92.025c-2.21,0-3.999-1.788-3.999-3.999c0-2.21,1.789-3.999,3.999-3.999h287.954
				c2.211,0,3.999,1.789,3.999,3.999C383.979,494.179,382.19,495.967,379.979,495.967z"/>
		</g>
		<g>
			<g>
				<path fill="#3A3847" d="M266.458,136.021c-0.453,0-0.913-0.078-1.366-0.242c-2.078-0.754-3.148-3.051-2.391-5.124
					l37.916-104.171c4.085-11.236,13.506-19.692,26.526-23.816c12.662-4.003,27.246-3.426,41.127,1.625
					c29.901,10.874,37.51,38.662,29.573,60.49l-16.849,68.2c-0.531,2.137-2.68,3.461-4.844,2.922
					c-2.14-0.531-3.452-2.699-2.921-4.843l16.974-68.606c6.499-17.942,1.461-41.142-24.668-50.648
					c-12.232-4.448-25.004-4.972-35.979-1.511c-10.6,3.355-18.208,10.077-21.426,18.923l-37.916,104.17
					C269.622,135.014,268.091,136.021,266.458,136.021z"/>
			</g>
			<g>
				<path fill="#3A3847" d="M374.34,82.842c-1.32,0-2.617-0.656-3.375-1.855c-0.055-0.078-6.741-10.084-24.574-16.564
					c-17.825-6.487-29.378-3.128-29.503-3.101c-2.055,0.637-4.335-0.531-4.991-2.644c-0.648-2.097,0.508-4.328,2.608-4.987
					c0.555-0.184,14.068-4.281,34.62,3.218c20.583,7.479,28.276,19.29,28.589,19.79c1.188,1.863,0.633,4.335-1.227,5.519
					C375.815,82.639,375.074,82.842,374.34,82.842z"/>
			</g>
			<g>
				<path fill="#3A3847" d="M357.921,127.944c-1.32,0-2.617-0.656-3.375-1.855c-0.055-0.078-6.741-10.084-24.566-16.572
					c-17.856-6.495-29.378-3.124-29.503-3.093c-2.031,0.64-4.335-0.527-4.991-2.641c-0.648-2.101,0.508-4.331,2.608-4.991
					c0.562-0.172,14.061-4.265,34.62,3.21c20.574,7.487,28.269,19.297,28.581,19.797c1.188,1.863,0.633,4.335-1.227,5.519
					C359.396,127.741,358.654,127.944,357.921,127.944z"/>
			</g>
		</g>
		<g>
			<path fill="#3A3847" d="M108.02,136.021c-1.961,0-3.672-1.438-3.957-3.434L88.065,20.606c-0.312-2.188,1.207-4.214,3.394-4.527
				c2.195-0.332,4.214,1.207,4.527,3.394l15.997,111.982c0.312,2.187-1.207,4.214-3.394,4.527
				C108.398,136.01,108.207,136.021,108.02,136.021z"/>
		</g>
		<g>
			<path fill="#3A3847" d="M132.016,136.021c-1.809,0-3.449-1.234-3.887-3.074c-0.199-0.832-20.043-83.545-39.356-110.583
				c-1.285-1.796-0.867-4.296,0.93-5.577c1.8-1.289,4.292-0.867,5.577,0.929c20.219,28.309,39.806,109.92,40.63,113.38
				c0.512,2.148-0.816,4.304-2.964,4.816C132.632,135.986,132.324,136.021,132.016,136.021z"/>
		</g>
		<g>
			<path fill="#3A3847" d="M156.012,136.021c-1.805,0-3.441-1.23-3.882-3.062c-17.908-74.152-39.326-110.505-39.541-110.865
				c-1.133-1.894-0.516-4.351,1.379-5.483c1.894-1.132,4.351-0.523,5.483,1.375c0.902,1.5,22.223,37.604,40.45,113.099
				c0.52,2.144-0.801,4.308-2.949,4.824C156.641,135.986,156.324,136.021,156.012,136.021z"/>
		</g>
		<g>
			<path fill="#3A3847" d="M112.026,40.037c-0.32,0-0.648-0.039-0.973-0.121c-2.144-0.535-3.448-2.707-2.909-4.847l3.999-15.998
				c0.531-2.148,2.699-3.456,4.847-2.91c2.145,0.535,3.449,2.707,2.91,4.847l-4,15.997
				C115.448,38.826,113.819,40.037,112.026,40.037z"/>
		</g>
		<g>
			<path fill="#3A3847" d="M252,136.021c-2.211,0-4-1.789-4-4v-27.996h-71.988v27.996c0,2.21-1.789,4-4,4
				c-2.21,0-3.999-1.789-3.999-4v-31.995c0-2.211,1.789-4,3.999-4H252c2.21,0,3.999,1.789,3.999,4v31.995
				C255.999,134.232,254.21,136.021,252,136.021z"/>
		</g>
		<g>
			<path fill="#3A3847" d="M228.004,136.021c-2.211,0-4-1.789-4-4c0-6.616-5.382-11.998-11.998-11.998s-11.998,5.382-11.998,11.998
				c0,2.21-1.789,4-4,4c-2.21,0-3.999-1.789-3.999-4c0-11.026,8.971-19.997,19.997-19.997s19.997,8.971,19.997,19.997
				C232.003,134.232,230.214,136.021,228.004,136.021z"/>
		</g>
		<g>
			<path fill="#3A3847" d="M172.013,96.028c-1.023,0-2.046-0.391-2.828-1.172c-1.562-1.562-1.562-4.093,0-5.655l7.999-7.999
				c1.562-1.562,4.093-1.562,5.655,0c1.562,1.562,1.562,4.093,0,5.655l-7.998,7.999C174.06,95.637,173.036,96.028,172.013,96.028z"
				/>
		</g>
		<g>
			<path fill="#3A3847" d="M244.001,88.029h-63.989c-2.211,0-4-1.789-4-4s1.789-4,4-4h63.989c2.211,0,4,1.789,4,4
				S246.212,88.029,244.001,88.029z"/>
		</g>
		<g>
			<path fill="#3A3847" d="M252,96.028c-1.023,0-2.047-0.391-2.828-1.172l-7.999-7.999c-1.562-1.562-1.562-4.093,0-5.655
				c1.562-1.562,4.093-1.562,5.655,0l7.999,7.999c1.562,1.562,1.562,4.093,0,5.655C254.046,95.637,253.023,96.028,252,96.028z"/>
		</g>
		<g>
			<path fill="#3A3847" d="M188.198,389.812c-0.945,0-1.894-0.336-2.656-1.008c-16.224-14.42-25.527-35.119-25.527-56.811
				c0-41.9,34.088-75.992,75.988-75.992c5.675,0,11.331,0.629,16.814,1.863c2.156,0.484,3.507,2.624,3.022,4.78
				c-0.488,2.155-2.647,3.515-4.78,3.022c-4.909-1.102-9.975-1.663-15.056-1.663c-37.49,0-67.989,30.495-67.989,67.989
				c0,19.402,8.327,37.931,22.84,50.827c1.652,1.469,1.801,3.991,0.336,5.647C190.396,389.359,189.299,389.812,188.198,389.812z"/>
		</g>
		<g>
			<path fill="#3A3847" d="M236.002,407.981c-5.706,0-11.393-0.641-16.896-1.891c-2.155-0.492-3.503-2.632-3.011-4.788
				c0.488-2.156,2.625-3.522,4.784-3.008c4.925,1.117,10.014,1.688,15.123,1.688c37.487,0,67.989-30.503,67.989-67.988
				c0-19.317-8.256-37.783-22.652-50.672c-1.648-1.469-1.789-4-0.32-5.647c1.492-1.648,4.031-1.781,5.647-0.312
				c16.099,14.403,25.324,35.041,25.324,56.632C311.99,373.893,277.902,407.981,236.002,407.981z"/>
		</g>
		<g>
			<path fill="#3A3847" d="M252,351.99c-1.023,0-2.047-0.391-2.828-1.172l-31.995-31.994c-1.562-1.562-1.562-4.094,0-5.656
				c1.562-1.562,4.093-1.562,5.655,0l31.995,31.995c1.562,1.562,1.562,4.094,0,5.655C254.046,351.6,253.023,351.99,252,351.99z"/>
		</g>
		<g>
			<path fill="#3A3847" d="M220.005,319.996c-1.023,0-2.046-0.391-2.827-1.172c-1.562-1.562-1.562-4.094,0-5.656l79.987-79.99
				c1.562-1.562,4.093-1.562,5.654,0c1.562,1.562,1.562,4.093,0,5.655l-79.986,79.991
				C222.052,319.605,221.028,319.996,220.005,319.996z"/>
		</g>
		<g>
			<path fill="#3A3847" d="M180.012,423.979c-1.023,0-2.047-0.391-2.828-1.172c-1.562-1.562-1.562-4.093,0-5.654l71.989-71.989
				c1.562-1.562,4.093-1.562,5.655,0c1.562,1.562,1.562,4.094,0,5.655l-71.989,71.988
				C182.058,423.588,181.035,423.979,180.012,423.979z"/>
		</g>
		<g>
			<path fill="#3A3847" d="M379.979,160.018c-1.211,0-2.414-0.551-3.203-1.602c-1.32-1.765-0.961-4.272,0.805-5.597l31.995-23.996
				c1.766-1.324,4.265-0.977,5.601,0.801c1.32,1.765,0.961,4.272-0.805,5.597l-31.994,23.996
				C381.659,159.756,380.815,160.018,379.979,160.018z"/>
		</g>
		<g>
			<path fill="#3A3847" d="M403.976,495.967c-0.602,0-1.211-0.141-1.789-0.422c-1.977-0.991-2.773-3.39-1.789-5.365l15.998-31.995
				c0.992-1.984,3.397-2.766,5.366-1.789c1.976,0.984,2.772,3.39,1.789,5.366l-15.998,31.995
				C406.851,495.154,405.437,495.967,403.976,495.967z"/>
		</g>
		<g>
			<path fill="#3A3847" d="M425.3,471.963c-1.289,0-2.554-0.625-3.327-1.78l-5.327-7.991c-1.227-1.844-0.727-4.319,1.109-5.546
				c1.812-1.227,4.312-0.742,5.546,1.109l5.327,7.991c1.227,1.835,0.727,4.319-1.109,5.545
				C426.839,471.744,426.065,471.963,425.3,471.963z"/>
		</g>
		<g>
			<path fill="#3A3847" d="M435.962,487.969c-2.077,0-3.835-1.617-3.983-3.727l-23.996-351.947
				c-0.148-2.207,1.516-4.113,3.718-4.265c2.102-0.133,4.109,1.512,4.266,3.718l23.996,351.947c0.148,2.203-1.516,4.109-3.719,4.266
				C436.149,487.961,436.056,487.969,435.962,487.969z"/>
		</g>
		<g>
			<path fill="#3A3847" d="M395.977,511.965c-1.351,0-2.679-0.695-3.429-1.945c-1.141-1.891-0.523-4.351,1.375-5.483l39.993-23.996
				c1.874-1.133,4.343-0.531,5.483,1.367c1.141,1.897,0.523,4.351-1.375,5.491l-39.993,23.996
				C397.391,511.777,396.68,511.965,395.977,511.965z"/>
		</g>
		<g>
			<path fill="#3A3847" d="M411.974,136.021h-15.997c-2.21,0-3.999-1.789-3.999-4s1.789-4,3.999-4h15.997c2.211,0,4,1.789,4,4
				S414.185,136.021,411.974,136.021z"/>
		</g>
	</g>
</g>
</svg>
