<svg xmlns="http://www.w3.org/2000/svg" viewBox="0 0 512 512"><title>Artboard 103</title><g id="Burger"><path d="M149.33323,320H362.66677A106.66656,106.66656,0,0,1,469.33333,426.66656v.00011a0,0,0,0,1,0,0H42.66667a0,0,0,0,1,0,0v-.00011A106.66656,106.66656,0,0,1,149.33323,320Z" transform="translate(512 746.66667) rotate(-180)" style="fill:#cc4900"/><rect x="320" y="320" width="128" height="42.66667" style="fill:#e76400"/><path d="M341.33333,320H42.66667A106.66694,106.66694,0,0,0,149.33333,426.66667h85.33334A106.66694,106.66694,0,0,0,341.33333,320Z" style="fill:#ef7f00"/><path d="M362.66667,426.66667V384a64.01175,64.01175,0,0,0,61.97916-48l41.3125,10.66667A106.68037,106.68037,0,0,1,362.66667,426.66667Z" style="fill:#bf3c00"/><rect x="64" y="320" width="256" height="42.66667" style="fill:#f59707"/><polygon points="256 384 64 298.667 448 298.667 256 384" style="fill:#fdbc34"/><rect x="249.31691" y="330.15853" width="155.10576" height="21.33919" transform="translate(-110.25101 162.12984) rotate(-23.96249)" style="fill:#fdab00"/><rect x="42.66667" y="234.66667" width="426.66667" height="85.33333" rx="42.66662" ry="42.66662" style="fill:#8b2800"/><rect x="42.66667" y="234.66667" width="298.66667" height="85.33333" rx="42.66662" ry="42.66662" style="fill:#993b17"/><ellipse cx="266.66667" cy="256" rx="96" ry="42.66667" style="fill:#c11107"/><ellipse cx="352" cy="245.33333" rx="96" ry="53.33333" style="fill:#c82e25"/><ellipse cx="160" cy="234.66667" rx="96" ry="42.66667" style="fill:#c82e25"/><ellipse cx="352" cy="245.33333" rx="74.66667" ry="32" style="fill:#d2514a"/><path d="M64,234.66667S64,256,106.66667,256s42.66666,21.33333,64,21.33333S192,256,234.66667,256s38.515,21.33333,61.92419,21.33333S320,256,362.66667,256,448,256,448,213.33333H64Z" style="fill:#fee3aa"/><path d="M170.66667,234.66667a149.33333,149.33333,0,1,1,298.66666,0Z" style="fill:#ef7f00"/><ellipse cx="320" cy="128" rx="85.33333" ry="42.66667" style="fill:#e76400"/><path d="M352,320a182.843,182.843,0,0,1-40.75-4.57292A217.40647,217.40647,0,0,1,266.66667,320c-36.11459,0-68.70834-7.97917-90.28125-21.97917-5.33334.40625-10.79167.64584-16.38542.64584-37.33333,0-71.04167-8.4375-92.46875-23.15625l12.08333-17.58334C97.57292,270.26042,126.875,277.33333,160,277.33333c6.28125,0,12.36458-.33333,18.28125-.88541l3.96875-.36459,3.22917,2.32292c25.36458,18.21875,78.48958,25.70833,123.55208,15.67708l2.4375-.54166,2.41667.58333A161.0259,161.0259,0,0,0,352,298.66667c36.875,0,69.91667-11.46875,86.23958-29.9375l15.97917,14.125C433.67708,306.11458,395.45833,320,352,320Z" style="fill:#7d1a00"/><rect x="362.66667" y="192" width="85.33333" height="42.66667" style="fill:#fdbc34"/><path d="M42.66667,234.66667a149.33333,149.33333,0,1,1,298.66666,0Z" style="fill:#f59707"/><rect x="64" y="192" width="256" height="42.66667" style="fill:#fdcf6d"/><ellipse cx="192" cy="128" rx="85.33333" ry="42.66667" style="fill:#ef7f00"/><ellipse cx="128" cy="138.66667" rx="21.33333" ry="10.66667" style="fill:#fee3aa"/><ellipse cx="192" cy="96" rx="21.33333" ry="10.66667" style="fill:#fee3aa"/><ellipse cx="256" cy="117.33333" rx="21.33333" ry="10.66667" style="fill:#fee3aa"/><ellipse cx="362.66667" cy="117.33333" rx="21.33333" ry="10.66667" style="fill:#fdcf6d"/><ellipse cx="298.66667" cy="96" rx="21.33333" ry="10.66667" style="fill:#fdcf6d"/></g></svg>