<?xml version="1.0" encoding="iso-8859-1"?>
<!-- Generator: Adobe Illustrator 19.0.0, SVG Export Plug-In . SVG Version: 6.00 Build 0)  -->
<svg xmlns="http://www.w3.org/2000/svg" xmlns:xlink="http://www.w3.org/1999/xlink" version="1.1" id="Layer_1" x="0px" y="0px" viewBox="0 0 512.005 512.005" style="enable-background:new 0 0 512.005 512.005;" xml:space="preserve">
<path style="fill:#99D687;" d="M427.977,306.899h50.257c9.345-9.089,17.931-18.886,25.623-29.325  c-44.318-60.159-117.773-99.505-200.904-99.505c-83.135,0-156.59,39.347-200.908,99.505  c44.318,60.161,117.773,99.506,200.908,99.506c56.697,0,108.885-18.313,150.406-49.037L427.977,306.899z"/>
<path style="fill:#84C66B;" d="M127.024,298.412c46.366-62.938,123.213-104.103,210.187-104.103c30.877,0,60.467,5.211,87.88,14.721  c-35.958-19.69-77.661-30.962-122.14-30.962c-83.135,0-156.59,39.347-200.908,99.505c14.291,19.397,31.624,36.616,51.321,51.065  C143.769,319.257,134.943,309.161,127.024,298.412z"/>
<path style="fill:#84C075;" d="M346.089,243.465c-2.506,10.966-3.828,22.382-3.828,34.109c0,33.739,10.959,64.915,29.498,90.18  c29.976-8.321,57.569-21.941,81.597-39.714l-25.379-21.142h50.278c9.343-9.085,17.912-18.889,25.601-29.325  c-31.581-42.87-77.965-75.155-132.098-90.18c-6.866,9.358-12.694,19.528-17.31,30.337"/>
<circle style="fill:#C6C6C6;" cx="402.995" cy="253.311" r="17.016"/>
<g>
	<path style="fill:#FCD170;" d="M38.119,292.412c-19.634,14.599-30.073,36.791-29.972,58.781   c21.03,6.425,45.287,2.817,64.919-11.784c19.633-14.597,30.071-36.79,29.973-58.778C82.009,274.205,57.752,277.812,38.119,292.412z   "/>
	<path style="fill:#FCD170;" d="M90.763,234.289c8.13,12.151,12.337,26.231,12.276,40.229c-21.03,6.426-45.287,2.819-64.92-11.781   c-19.634-14.599-30.073-36.791-29.972-58.781c21.03-6.425,45.287-2.817,64.919,11.784"/>
</g>
<path style="fill:#F4AC45;" d="M20.047,233.659c22.762-6.954,49.015-3.05,70.266,12.754l10.724,11.243  c-1.984-8.19-5.425-16.122-10.273-23.367L73.067,215.74c-19.632-14.6-43.889-18.209-64.919-11.784  c-0.066,14.222,4.284,28.526,12.672,40.808C20.289,241.078,20.029,237.366,20.047,233.659z"/>
<g>
	<path style="fill:#FCD170;" d="M302.951,178.069c20.682,0,40.762,2.439,59.947,7.025c-19.047-30.144-52.66-50.167-90.955-50.167   c-50.575,0-92.985,34.92-104.458,81.962C206.291,192.37,252.857,178.069,302.951,178.069z"/>
	<path style="fill:#FCD170;" d="M342.958,292.19c-6.385-2.191-13.258-3.407-20.438-3.407c-20.427,0-38.478,9.668-49.368,24.451   c10.89,14.783,28.941,24.452,49.368,24.452c10.594,0,20.536-2.617,29.182-7.182C347.216,318.383,344.226,305.538,342.958,292.19z"/>
</g>
<g>
	<path style="fill:#F4AC45;" d="M288.121,136.148c-5.277-0.796-10.677-1.223-16.178-1.223c-50.575,0-92.985,34.92-104.458,81.962   c12.406-7.837,25.608-14.625,39.462-20.241C221.955,164.818,252.111,141.561,288.121,136.148z"/>
	<path style="fill:#F4AC45;" d="M305.437,313.234c7.906-10.731,19.594-18.743,33.216-22.342c-5.136-1.362-10.539-2.108-16.134-2.108   c-20.427,0-38.478,9.668-49.368,24.451c10.89,14.783,28.941,24.452,49.368,24.452c5.593,0,10.997-0.747,16.133-2.108   C325.03,331.978,313.343,323.965,305.437,313.234z"/>
</g>
<path style="fill:#FCD170;" d="M147.13,323.916c-13.292,13.993-20.269,32.117-20.186,50.109c21.03,6.425,45.287,2.817,64.919-11.784  c2.831-2.105,5.464-4.371,7.908-6.768C180.777,347.078,163.107,336.441,147.13,323.916z"/>
<path style="fill:#F4AC45;" d="M157.22,374.024c-0.058-12.449,3.27-24.957,9.725-36.121c-6.853-4.355-13.472-9.016-19.815-13.988  c-13.292,13.993-20.269,32.117-20.186,50.109c11.408,3.485,23.764,4.011,35.816,1.439  C160.892,375.058,159.042,374.581,157.22,374.024z"/>
<g>
	<path style="fill:#231F20;" d="M402.997,228.148c-13.873,0-25.16,11.288-25.16,25.161c0,13.873,11.288,25.16,25.16,25.16   c13.874,0,25.162-11.288,25.162-25.16C428.159,239.435,416.87,228.148,402.997,228.148z M402.997,262.179   c-4.891,0-8.869-3.978-8.869-8.869s3.978-8.87,8.869-8.87c4.892,0,8.871,3.979,8.871,8.87   C411.868,258.2,407.887,262.179,402.997,262.179z"/>
	<path style="fill:#231F20;" d="M511.604,275.061c-0.265-0.816-0.661-1.6-1.19-2.318c-1.31-1.778-2.652-3.53-4.01-5.271   c-0.397-0.509-0.798-1.016-1.199-1.522c-1.078-1.36-2.171-2.708-3.278-4.044c-0.341-0.412-0.676-0.828-1.019-1.237   c-1.332-1.585-2.685-3.151-4.057-4.702c-0.539-0.609-1.085-1.21-1.629-1.814c-0.922-1.022-1.852-2.036-2.79-3.042   c-0.607-0.652-1.212-1.304-1.827-1.948c-1.333-1.397-2.677-2.781-4.042-4.148c-0.668-0.669-1.349-1.324-2.024-1.985   c-0.859-0.841-1.721-1.677-2.594-2.505c-0.748-0.71-1.498-1.418-2.255-2.119c-0.966-0.895-1.943-1.778-2.923-2.659   c-0.987-0.886-1.981-1.766-2.982-2.636c-1.082-0.941-2.168-1.876-3.266-2.798c-0.695-0.583-1.395-1.161-2.096-1.737   c-1.147-0.943-2.304-1.874-3.467-2.796c-0.514-0.407-1.023-0.82-1.54-1.223c-1.707-1.332-3.435-2.639-5.177-3.928   c-0.336-0.248-0.674-0.492-1.012-0.737c-1.675-1.226-3.365-2.432-5.07-3.618c-0.162-0.113-0.323-0.227-0.484-0.339   c-23.441-16.217-49.743-28.623-77.737-36.393c-0.39-0.109-0.783-0.182-1.176-0.231c-1.572-0.43-3.149-0.842-4.731-1.244   c-21.563-32.173-57.24-51.29-96.088-51.29c-52.406,0-97.793,34.8-111.529,85.019c-19.013,12.322-36.332,27.152-51.382,44.19   c-2.201-9.239-6.064-18.106-11.498-26.228c-2.501-3.737-7.56-4.742-11.3-2.241c-3.738,2.502-4.742,7.561-2.241,11.3   c5.995,8.958,9.612,19.025,10.614,29.425c-17.67,3.481-36.561-0.84-51.626-12.044c-15.066-11.202-24.643-28.05-26.396-45.971   c17.667-3.479,36.559,0.843,51.622,12.047c3.61,2.686,8.712,1.934,11.397-1.676c2.685-3.609,1.934-8.712-1.676-11.397   c-20.938-15.571-47.913-20.446-72.16-13.037c-3.412,1.043-5.749,4.185-5.766,7.753c-0.117,25.353,12.315,49.785,33.256,65.356   c4.341,3.228,8.945,5.985,13.726,8.28c-4.77,2.305-9.365,5.077-13.726,8.321c-20.939,15.57-33.372,40.003-33.254,65.355   c0.017,3.568,2.354,6.71,5.766,7.752c7.407,2.263,15.144,3.411,22.998,3.411c17.692,0,34.694-5.689,49.162-16.449   c15.75-11.711,26.686-28.439,31.09-46.802c8.198,9.282,17.07,17.905,26.522,25.826c-10.922,14.202-16.825,31.335-16.743,49.09   c0.017,3.568,2.354,6.711,5.766,7.754c7.407,2.263,15.144,3.411,22.998,3.411c0.001,0,0,0,0.001,0   c17.691,0,34.693-5.689,49.16-16.448c1.623-1.206,3.21-2.486,4.759-3.823c31.591,13.171,66.073,20.27,101.471,20.27   c50.77,0,99.046-14,140.694-40.626c0.001-0.001,0.003-0.002,0.004-0.002c1.577-1.009,3.146-2.034,4.704-3.079   c0.104-0.07,0.208-0.138,0.313-0.207c1.548-1.042,3.088-2.098,4.616-3.175c0.056-0.039,0.113-0.077,0.168-0.116   c1.593-1.125,3.179-2.263,4.752-3.427c2.01-1.487,3.226-3.815,3.297-6.313c0.063-2.187-0.756-4.293-2.249-5.858   c-0.214-0.224-0.441-0.437-0.681-0.636l-8.088-6.737h27.753h0.022c2.121,0,4.159-0.828,5.679-2.306   c9.672-9.406,18.58-19.611,26.481-30.333c1.059-1.437,1.588-3.134,1.588-4.832C512.002,276.726,511.869,275.876,511.604,275.061z    M147.561,368.934c-4.124,0-8.204-0.398-12.189-1.184c1.127-11.8,5.596-23.075,12.952-32.702   c11.445,8.415,23.62,15.881,36.367,22.304C173.576,364.939,160.798,368.934,147.561,368.934z M182.562,198.883   c16.327-33.673,50.626-55.812,89.381-55.812c27.177,0,52.554,10.885,71.046,29.855c-10.455-1.581-21.032-2.532-31.657-2.863   c-0.474-0.015-0.947-0.027-1.421-0.04c-2.318-0.06-4.638-0.101-6.96-0.101c-2.59,0-5.176,0.038-7.757,0.114   C255.573,171.176,217.152,181.042,182.562,198.883z M68.207,332.873c-11.637,8.655-25.275,13.231-39.441,13.231   c-4.122,0-8.199-0.396-12.182-1.183c1.752-17.922,11.33-34.77,26.396-45.972c11.636-8.654,25.273-13.229,39.437-13.229   c4.122,0,8.2,0.398,12.184,1.184C92.847,304.825,83.27,321.672,68.207,332.873z M341.563,326.13   c-6.045,2.242-12.518,3.41-19.043,3.41c-14.864,0-28.93-6.002-38.754-16.307c9.824-10.303,23.89-16.305,38.754-16.305   c4.378,0,8.711,0.519,12.941,1.547C336.678,307.902,338.721,317.146,341.563,326.13z M427.977,298.754   c-0.858,0-1.692,0.135-2.48,0.386c-2.363,0.756-4.304,2.569-5.181,4.987c-0.875,2.419-0.544,5.055,0.789,7.148   c0.444,0.697,0.999,1.335,1.657,1.883l17.231,14.354c-19.924,13.441-41.699,23.773-64.924,30.803   c-6.492-9.6-11.726-19.84-15.693-30.529c-0.013-0.036-0.022-0.073-0.035-0.109c-3.195-8.633-5.547-17.569-7.032-26.667   c-0.025-0.156-0.053-0.312-0.078-0.468c-0.201-1.256-0.377-2.514-0.545-3.775c-0.055-0.421-0.112-0.842-0.164-1.264   c-0.14-1.131-0.265-2.263-0.378-3.398c-0.477-4.801-0.739-9.644-0.739-14.53c0-10.902,1.22-21.768,3.624-32.295   c1.002-4.386-1.742-8.753-6.128-9.754c-4.379-1.005-8.754,1.74-9.754,6.128c-2.677,11.715-4.034,23.801-4.034,35.922   c0,1.343,0.022,2.684,0.054,4.022c-3.839-0.636-7.731-0.959-11.649-0.959c-22.211,0-43.118,10.38-55.926,27.765   c-2.117,2.874-2.117,6.789,0,9.662c12.808,17.387,33.715,27.766,55.926,27.766c8.47,0,16.881-1.527,24.746-4.448   c3.193,7.363,6.953,14.504,11.265,21.377c-17.989,4.084-36.597,6.173-55.581,6.173c-51.678,0-101.27-16.064-141.728-44.699   c-0.077-0.054-0.154-0.11-0.23-0.164c-1.666-1.183-3.315-2.389-4.949-3.615c-0.356-0.267-0.71-0.539-1.065-0.808   c-15.939-12.085-30.338-26.18-42.716-42.074c41.85-53.732,106.697-87.009,176.625-90.962c0.008,0,0.015-0.001,0.023-0.001   c2.178-0.123,4.362-0.212,6.548-0.277c0.359-0.011,0.719-0.018,1.079-0.028c2.135-0.055,4.273-0.09,6.416-0.09   c2.386,0,4.771,0.037,7.154,0.104c1.464,0.042,2.922,0.118,4.381,0.186c0.88,0.04,1.762,0.066,2.641,0.115   c2.15,0.123,4.295,0.277,6.435,0.454c0.15,0.012,0.301,0.021,0.452,0.034c11.679,0.992,23.197,2.804,34.47,5.389   c-4.403,7.044-8.272,14.415-11.526,22.036c-1.767,4.138,0.155,8.923,4.292,10.69c4.138,1.763,8.922-0.156,10.69-4.292   c3.578-8.378,7.968-16.434,13.078-24.012c22.861,6.941,44.494,17.117,64.124,30.194c0.043,0.029,0.088,0.059,0.131,0.088   c3.493,2.33,6.916,4.759,10.278,7.269c0.47,0.352,0.939,0.705,1.408,1.06c1.277,0.969,2.545,1.952,3.801,2.947   c0.62,0.491,1.236,0.986,1.852,1.484c1.074,0.868,2.142,1.745,3.201,2.632c0.674,0.566,1.347,1.134,2.015,1.707   c0.885,0.758,1.762,1.527,2.636,2.298c0.969,0.856,1.931,1.72,2.886,2.591c0.842,0.769,1.681,1.541,2.511,2.322   c0.679,0.639,1.352,1.281,2.023,1.927c0.853,0.822,1.696,1.652,2.537,2.487c0.804,0.798,1.602,1.602,2.393,2.411   c0.93,0.951,1.854,1.909,2.767,2.877c0.545,0.577,1.086,1.157,1.625,1.74c1.05,1.136,2.091,2.282,3.118,3.441   c0.367,0.413,0.733,0.825,1.097,1.241c1.144,1.308,2.271,2.63,3.385,3.966c0.37,0.443,0.739,0.887,1.105,1.334   c1.259,1.531,2.507,3.074,3.727,4.64c-5.74,7.359-12.021,14.458-18.744,21.182h-46.918V298.754z"/>
</g>
<g>
</g>
<g>
</g>
<g>
</g>
<g>
</g>
<g>
</g>
<g>
</g>
<g>
</g>
<g>
</g>
<g>
</g>
<g>
</g>
<g>
</g>
<g>
</g>
<g>
</g>
<g>
</g>
<g>
</g>
</svg>
