<svg xmlns="http://www.w3.org/2000/svg" width="128" height="128" viewBox="0 0 128 128">
  <title>HERB</title>
  <g>
    <rect x="31.464" y="111.346" width="65.072" height="10.347" fill="#ff5086"/>
    <path d="M6.306,52.888H121.694a0,0,0,0,1,0,0V88.346a23,23,0,0,1-23,23H29.306a23,23,0,0,1-23-23V52.888A0,0,0,0,1,6.306,52.888Z" fill="#f4d32c"/>
    <path d="M68.127,52.888,96.792,24.222a14.588,14.588,0,0,1,20.629,0h0a14.586,14.586,0,0,1,0,20.629l-8.037,8.037Z" fill="#ff5086"/>
    <path d="M39.245,52.888a32.937,32.937,0,0,1,0-46.582A32.939,32.939,0,0,1,39.245,52.888Z" fill="#2fddbb"/>
    <path d="M39.245,52.888A32.938,32.938,0,0,0,6.306,19.95,32.938,32.938,0,0,0,39.245,52.888Z" fill="#2fddbb"/>
    <path d="M39.245,52.888A32.938,32.938,0,0,1,72.183,19.95,32.938,32.938,0,0,1,39.245,52.888Z" fill="#2fddbb"/>
    <path d="M39.24,52.89c-.86,0-1.71-.03-2.56-.1A32.939,32.939,0,0,1,6.41,22.53c-.07-.85-.1-1.71-.1-2.58.87,0,1.72.03,2.57.1A32.938,32.938,0,0,1,39.14,50.31C39.21,51.16,39.24,52.02,39.24,52.89Z" fill="#2fddbb"/>
    <path d="M72.18,19.95c0,.87-.03,1.73-.1,2.58A32.939,32.939,0,0,1,41.81,52.79c-.85.07-1.71.1-2.57.1,0-.87.03-1.73.1-2.58A32.947,32.947,0,0,1,69.61,20.05C70.46,19.98,71.32,19.95,72.18,19.95Z" fill="#2fddbb"/>
    <path d="M98.28,102.018H92.637a1.75,1.75,0,0,1,0-3.5H98.28a10.6,10.6,0,0,0,10.585-10.585V83.012a1.75,1.75,0,0,1,3.5,0v4.921A14.1,14.1,0,0,1,98.28,102.018Z" fill="#ffeea4"/>
    <path d="M110.615,76.983a1.75,1.75,0,0,1-1.75-1.75V71.286a1.75,1.75,0,0,1,3.5,0v3.947A1.749,1.749,0,0,1,110.615,76.983Z" fill="#ffeea4"/>
    <path d="M39.14,50.31c.07.85.1,1.71.1,2.58-.86,0-1.71-.03-2.56-.1L6.41,22.53c-.07-.85-.1-1.71-.1-2.58.87,0,1.72.03,2.57.1Z" fill="#ff5086"/>
    <path d="M72.18,19.95c0,.87-.03,1.73-.1,2.58L41.81,52.79c-.85.07-1.71.1-2.57.1,0-.87.03-1.73.1-2.58L69.61,20.05C70.46,19.98,71.32,19.95,72.18,19.95Z" fill="#ff5086"/>
    <path d="M40.99,8.22V50.98c-.54.65-1.13,1.29-1.75,1.91-.62-.62-1.21-1.26-1.75-1.91V8.22c.54-.65,1.13-1.29,1.75-1.91C39.86,6.93,40.45,7.57,40.99,8.22Z" fill="#ff5086"/>
  </g>
</svg>
