<?xml version="1.0" encoding="iso-8859-1"?>
<!-- Generator: Adobe Illustrator 19.0.0, SVG Export Plug-In . SVG Version: 6.00 Build 0)  -->
<svg xmlns="http://www.w3.org/2000/svg" xmlns:xlink="http://www.w3.org/1999/xlink" version="1.1" id="Capa_1" x="0px" y="0px" viewBox="0 0 512 512" style="enable-background:new 0 0 512 512;" xml:space="preserve">
<path style="fill:#5BA14D;" d="M225.02,303.122c11.446-39.034,52.368-61.398,91.401-49.951c23.665,6.939,41.199,24.714,48.79,46.332  c18.299-21.08,47.845-30.787,76.384-22.419c39.034,11.446,61.397,52.368,49.951,91.401s-52.368,61.397-91.401,49.951  c-6.232-1.827-12.036-4.409-17.349-7.612c-0.174,6.201-1.135,12.48-2.963,18.712c-11.446,39.034-52.368,61.397-91.401,49.951  c-39.034-11.446-61.398-52.368-49.951-91.401c1.275-4.349,2.919-8.49,4.882-12.401C225.143,357.258,217.211,329.752,225.02,303.122z  "/>
<path style="fill:#8EB55E;" d="M286.98,390.71c-11.446,39.034-52.368,61.397-91.401,49.951  c-23.665-6.939-41.199-24.714-48.79-46.332c-18.299,21.08-47.845,30.787-76.384,22.419c-39.033-11.446-61.397-52.368-49.951-91.401  s52.368-61.397,91.401-49.951c6.232,1.827,12.036,4.409,17.349,7.612c0.174-6.201,1.135-12.48,2.963-18.712  c11.446-39.033,52.368-61.398,91.401-49.951c39.033,11.446,61.398,52.368,49.951,91.401c-1.275,4.349-2.919,8.49-4.882,12.401  C286.857,336.574,294.789,364.08,286.98,390.71z"/>
<path style="fill:#F24F43;" d="M453.823,286.862c-36.013,36.013-94.401,36.013-130.414,0c-1.151-1.151-2.264-2.326-3.342-3.522  l130.235-130.235c1.196,1.078,2.37,2.191,3.522,3.342C489.836,192.461,489.836,250.849,453.823,286.862z M298.51,208.005  c36.013-36.013,36.013-94.401,0-130.414s-94.401-36.013-130.414,0c-1.151,1.151-2.265,2.326-3.342,3.522l130.235,130.235  C296.184,210.27,297.359,209.157,298.51,208.005z M196.017,251.151c-36.013,36.013-36.013,94.401,0,130.414s94.401,36.013,130.414,0  c1.151-1.151,2.264-2.326,3.342-3.522L199.539,247.809C198.343,248.887,197.168,250,196.017,251.151z"/>
<path style="fill:#ED322E;" d="M453.823,286.862c-36.013,36.013-94.401,36.013-130.415,0c-1.151-1.151-2.264-2.326-3.342-3.522  l1.756-1.756c35.5,21.656,82.464,17.153,113.17-13.553s35.209-77.67,13.553-113.17l1.756-1.756c1.195,1.078,2.37,2.191,3.522,3.342  C489.836,192.461,489.836,250.849,453.823,286.862z M279.68,96.422c30.706,30.706,35.209,77.67,13.553,113.17l1.756,1.756  c1.195-1.078,2.37-2.191,3.522-3.342c36.013-36.013,36.013-94.401,0-130.414s-94.401-36.013-130.415,0  c-1.151,1.151-2.264,2.326-3.342,3.522l1.756,1.756C202.01,61.212,248.974,65.716,279.68,96.422z M214.847,362.735  c-30.706-30.706-35.209-77.67-13.553-113.17l-1.756-1.756c-1.196,1.078-2.37,2.191-3.522,3.342  c-36.013,36.013-36.013,94.401,0,130.414s94.401,36.013,130.414,0c1.151-1.151,2.264-2.326,3.342-3.522l-1.756-1.756  C292.517,397.944,245.554,393.441,214.847,362.735z"/>
<path style="fill:#FEC76B;" d="M415.471,360.974c3.791,3.791,3.791,9.937,0,13.728l-20.592,20.592  c-3.791,3.791-9.937,3.791-13.728,0l-20.592-20.592c-3.791-3.791-3.791-9.937,0-13.728l20.592-20.592  c3.791-3.791,9.937-3.791,13.728,0L415.471,360.974z M98.815,140.21c-3.791-3.791-9.937-3.791-13.728,0l-20.592,20.592  c-3.791,3.791-3.791,9.937,0,13.728l20.592,20.592c3.791,3.791,9.937,3.791,13.728,0l20.592-20.592  c3.791-3.791,3.791-9.937,0-13.728L98.815,140.21z M426.356,79.47l-20.592-20.592c-3.791-3.791-9.937-3.791-13.728,0L371.445,79.47  c-3.791,3.791-3.791,9.937,0,13.728l20.592,20.592c3.791,3.791,9.937,3.791,13.728,0l20.592-20.592  C430.147,89.407,430.147,83.261,426.356,79.47z M228.125,10.343c-3.791-3.791-9.937-3.791-13.728,0l-20.592,20.592  c-3.791,3.791-3.791,9.937,0,13.728l20.592,20.592c3.791,3.791,9.937,3.791,13.728,0l20.592-20.592  c3.791-3.791,3.791-9.937,0-13.728L228.125,10.343z"/>
<path style="fill:#AA7439;" d="M124.955,436.551h262.09l-6.559,51.011c-1.245,9.685-9.491,16.938-19.256,16.938H152.234  c-9.559,0-17.695-6.958-19.179-16.4L124.955,436.551z"/>
<path style="fill:#BC8544;" d="M17.207,376.367h477.586c5.361,0,9.707,4.346,9.707,9.707l0,0c0,48.249-39.114,87.363-87.363,87.363  H94.863c-48.249,0-87.363-39.114-87.363-87.363l0,0C7.5,380.713,11.846,376.367,17.207,376.367z"/>
<path style="fill:#D59A4C;" d="M17.207,376.367h456.23v9.707c0,48.249-39.114,87.363-87.363,87.363H94.863  c-48.249,0-87.363-39.114-87.363-87.363l0,0C7.5,380.713,11.846,376.367,17.207,376.367z"/>
<path d="M233.939,91.908v9.707c0,4.142-3.357,7.5-7.5,7.5s-7.5-3.358-7.5-7.5v-9.707c0-4.142,3.357-7.5,7.5-7.5  S233.939,87.766,233.939,91.908z M329.773,73.242c4.143,0,7.5-3.358,7.5-7.5v-0.971c0-4.142-3.357-7.5-7.5-7.5s-7.5,3.358-7.5,7.5  v0.971C322.273,69.884,325.631,73.242,329.773,73.242z M266.986,149.662c0,4.142,3.357,7.5,7.5,7.5h9.707c4.143,0,7.5-3.358,7.5-7.5  s-3.357-7.5-7.5-7.5h-9.707C270.344,142.162,266.986,145.52,266.986,149.662z M186.375,157.474v0.971c0,4.142,3.357,7.5,7.5,7.5  s7.5-3.358,7.5-7.5v-0.971c0-4.142-3.357-7.5-7.5-7.5S186.375,153.332,186.375,157.474z M258.887,106.607l-6.863,6.864  c-2.929,2.929-2.929,7.678,0.001,10.606c1.464,1.465,3.384,2.197,5.303,2.197c1.92,0,3.839-0.732,5.304-2.197l6.863-6.864  c2.929-2.929,2.929-7.678-0.001-10.607C266.565,103.679,261.816,103.678,258.887,106.607z M349.188,189.727  c1.919,0,3.839-0.732,5.304-2.197l7.51-7.51h26.015c4.143,0,7.5-3.358,7.5-7.5s-3.357-7.5-7.5-7.5h-11.015l6.611-6.611  c2.929-2.929,2.929-7.678,0-10.606c-2.929-2.928-7.677-2.93-10.607,0l-19.4,19.401c-0.009,0.008-0.018,0.017-0.026,0.025  l-9.694,9.694c-2.929,2.929-2.929,7.678,0,10.606C345.349,188.994,347.269,189.727,349.188,189.727z M366.141,98.501  c-3.25-3.25-5.039-7.571-5.039-12.167s1.789-8.917,5.04-12.167l20.591-20.591c3.251-3.25,7.571-5.04,12.168-5.04  s8.918,1.79,12.167,5.041l20.592,20.591c3.25,3.25,5.04,7.571,5.04,12.167s-1.79,8.917-5.041,12.167l-20.591,20.591  c-3.249,3.25-7.57,5.04-12.167,5.04s-8.917-1.79-12.168-5.04L366.141,98.501z M376.102,86.334c0,0.417,0.111,1.026,0.646,1.56  c0,0,0,0,0.001,0l20.592,20.592c0.534,0.534,1.144,0.646,1.561,0.646s1.025-0.112,1.56-0.646l20.592-20.592  c0.535-0.535,0.647-1.144,0.647-1.561s-0.112-1.026-0.646-1.56L400.46,64.182c-0.534-0.535-1.143-0.646-1.56-0.646  s-1.026,0.112-1.561,0.646l-20.592,20.592C376.213,85.308,376.102,85.917,376.102,86.334z M159.45,86.416  c-2.821-2.821-2.939-7.358-0.269-10.323c1.169-1.298,2.384-2.579,3.61-3.805c8.313-8.312,17.767-14.953,28.206-19.827l-2.496-2.496  c-3.249-3.25-5.039-7.571-5.039-12.167s1.789-8.917,5.04-12.167L209.094,5.04C212.345,1.79,216.665,0,221.262,0  s8.918,1.79,12.167,5.041l20.592,20.591c3.25,3.25,5.04,7.571,5.04,12.167s-1.79,8.917-5.041,12.167l-20.591,20.591  c-3.249,3.25-7.57,5.04-12.167,5.04s-8.917-1.79-12.168-5.04l-6.674-6.674c-10.075,3.926-19.175,9.685-27.121,17.167L295.05,200.802  c31.18-33.161,30.563-85.501-1.843-117.908c-8.008-8.008-17.331-14.227-27.711-18.484c-3.832-1.572-5.665-5.953-4.094-9.785  c1.572-3.833,5.951-5.667,9.785-4.093c12.229,5.015,23.206,12.335,32.627,21.755c18.834,18.834,29.206,43.875,29.206,70.51  s-10.372,51.676-29.206,70.51c-1.224,1.224-2.505,2.439-3.807,3.611c-1.43,1.289-3.226,1.928-5.019,1.928  c-1.924,0-3.844-0.736-5.305-2.197L159.45,86.416z M198.463,37.799c0,0.417,0.111,1.026,0.646,1.56c0,0,0,0,0.001,0l20.592,20.592  c0.534,0.534,1.144,0.646,1.561,0.646s1.025-0.112,1.56-0.646l20.592-20.592c0.535-0.535,0.647-1.144,0.647-1.561  s-0.112-1.026-0.646-1.56l-20.593-20.592c-0.534-0.535-1.143-0.646-1.56-0.646s-1.026,0.112-1.561,0.646L199.11,36.238  C198.574,36.772,198.463,37.382,198.463,37.799z M210.333,316.995h9.707c4.143,0,7.5-3.358,7.5-7.5s-3.357-7.5-7.5-7.5h-9.707  c-4.143,0-7.5,3.358-7.5,7.5S206.19,316.995,210.333,316.995z M225.032,352.549c1.465,1.465,3.384,2.197,5.304,2.197  c1.919,0,3.839-0.732,5.303-2.196l6.864-6.864c2.93-2.929,2.93-7.677,0.001-10.606c-2.93-2.928-7.679-2.929-10.606,0l-6.864,6.863  C222.104,344.872,222.104,349.62,225.032,352.549z M512,386.074c0,52.308-42.556,94.863-94.863,94.863H388.9l-0.975,7.58  C386.204,501.905,374.728,512,361.23,512H152.234c-13.337,0-24.519-9.562-26.588-22.736l-1.309-8.326H94.863  C42.556,480.938,0,438.382,0,386.074c0-8.169,5.723-15.026,13.368-16.775c-4.46-14.938-4.543-30.955-0.113-46.063  c12.591-42.939,57.768-67.635,100.709-55.038c3.023,0.886,5.988,1.945,8.878,3.169c0.53-3.093,1.24-6.16,2.126-9.183  c12.591-42.939,57.769-67.633,100.709-55.038c23.224,6.81,42.058,23.469,51.671,45.704c5.105,11.808,7.347,24.805,6.48,37.585  c-0.279,4.133-3.87,7.256-7.989,6.976c-4.133-0.28-7.256-3.857-6.976-7.99c0.704-10.407-1.122-20.994-5.283-30.618  c-7.839-18.13-23.192-31.712-42.124-37.264c-35.004-10.261-71.829,9.863-82.094,44.865c-1.608,5.484-2.504,11.14-2.663,16.812  c-0.075,2.667-1.56,5.093-3.9,6.372c-2.342,1.279-5.186,1.219-7.47-0.159c-4.856-2.929-10.101-5.229-15.586-6.838  c-35.004-10.261-71.829,9.863-82.094,44.865c-3.997,13.63-3.489,28.166,1.376,41.411h83.796c4.143,0,7.5,3.358,7.5,7.5  s-3.357,7.5-7.5,7.5H17.207c-1.217,0-2.207,0.99-2.207,2.207c0,44.037,35.826,79.863,79.863,79.863h223.909  c4.143,0,7.5,3.358,7.5,7.5s-3.357,7.5-7.5,7.5h-179.25l0.942,5.998c0.916,5.832,5.866,10.064,11.77,10.064H361.23  c5.975,0,11.056-4.469,11.817-10.395l0.729-5.667h-27.178c-4.143,0-7.5-3.358-7.5-7.5s3.357-7.5,7.5-7.5h70.538  c44.037,0,79.863-35.827,79.863-79.863c0-1.217-0.99-2.207-2.207-2.207H142.428c-4.143,0-7.5-3.358-7.5-7.5s3.357-7.5,7.5-7.5  h33.999c-10.403-16.764-15.615-36.314-14.846-56.356c0.966-25.168,11.313-48.843,29.132-66.663c1.221-1.22,2.5-2.435,3.803-3.609  c2.965-2.672,7.504-2.555,10.326,0.267l126.361,126.361h19.043c-0.02-0.341-0.029-0.685-0.029-1.029  c0-4.597,1.789-8.917,5.04-12.167l20.591-20.591c3.251-3.25,7.571-5.04,12.168-5.04s8.918,1.79,12.167,5.041l20.592,20.591  c3.249,3.25,5.04,7.57,5.04,12.167c0,0.345-0.011,0.688-0.03,1.029h57.782c0.277-0.826,0.539-1.657,0.783-2.49  c8.174-27.872-2.546-57.236-26.171-73.277c-38.954,37.945-101.508,37.63-140.074-0.936c-1.227-1.227-2.441-2.507-3.61-3.805  c-2.671-2.965-2.553-7.501,0.269-10.323l12.398-12.398c-4.063-2.19-8.36-3.955-12.851-5.271c-5.197-1.523-10.548-2.41-15.902-2.634  c-4.138-0.174-7.353-3.669-7.179-7.808c0.173-4.139,3.666-7.357,7.808-7.179c6.569,0.275,13.128,1.361,19.494,3.227  c6.944,2.037,13.517,4.949,19.61,8.685l106.855-106.856c2.823-2.821,7.36-2.94,10.323-0.269c1.302,1.172,2.583,2.388,3.807,3.611  c18.834,18.834,29.206,43.875,29.206,70.51c0,22.004-7.08,42.921-20.16,60.148c12.25,8.806,21.954,21.016,27.75,35.083  c6.841,16.6,7.951,35.202,3.159,52.523C506.502,371.319,512,378.066,512,386.074z M450.362,163.651l-119.75,119.75  c33.162,31.174,85.504,30.56,117.907-1.843C480.926,249.152,481.542,196.812,450.362,163.651z M309.989,368.867L199.478,258.355  c-28.53,30.385-30.553,77.886-4.745,110.512h66.03c-0.114-0.521-0.175-1.063-0.175-1.618v-9.707c0-4.142,3.357-7.5,7.5-7.5  s7.5,3.358,7.5,7.5v9.707c0,0.556-0.061,1.097-0.175,1.618H309.989z M410.814,367.838c0-0.417-0.112-1.026-0.646-1.56  l-20.593-20.592c-0.534-0.535-1.143-0.646-1.56-0.646s-1.026,0.112-1.561,0.646l-20.592,20.592  c-0.535,0.535-0.646,1.144-0.646,1.561c0,0.283,0.051,0.653,0.25,1.029h45.097C410.763,368.491,410.814,368.121,410.814,367.838z   M463.214,337.539v-0.971c0-4.142-3.357-7.5-7.5-7.5s-7.5,3.358-7.5,7.5v0.971c0,4.142,3.357,7.5,7.5,7.5  S463.214,341.681,463.214,337.539z M60.434,336.568v0.971c0,4.142,3.357,7.5,7.5,7.5s7.5-3.358,7.5-7.5v-0.971  c0-4.142-3.357-7.5-7.5-7.5S60.434,332.426,60.434,336.568z M110.915,109.874c1.465,1.464,3.385,2.197,5.304,2.197  s3.839-0.732,5.304-2.197c2.929-2.929,2.929-7.678,0-10.606l-7.511-7.51V65.742c0-4.142-3.357-7.5-7.5-7.5s-7.5,3.358-7.5,7.5  v11.015l-6.61-6.611c-2.931-2.93-7.679-2.928-10.607,0c-2.929,2.929-2.929,7.678,0,10.606L110.915,109.874z M439.506,207.291h-9.707  c-4.143,0-7.5,3.358-7.5,7.5s3.357,7.5,7.5,7.5h9.707c4.143,0,7.5-3.358,7.5-7.5S443.648,207.291,439.506,207.291z M57.977,238.262  c4.143,0,7.5-3.358,7.5-7.5v-0.971c0-4.142-3.357-7.5-7.5-7.5s-7.5,3.358-7.5,7.5v0.971  C50.477,234.904,53.834,238.262,57.977,238.262z M59.191,179.833c-3.25-3.25-5.04-7.571-5.04-12.167s1.79-8.917,5.041-12.167  l20.591-20.591c3.25-3.25,7.571-5.04,12.168-5.04s8.918,1.79,12.167,5.041L124.71,155.5c3.25,3.25,5.039,7.571,5.039,12.167  s-1.789,8.917-5.04,12.167l-20.591,20.591c-3.249,3.25-7.57,5.04-12.167,5.04s-8.918-1.79-12.168-5.04L59.191,179.833z   M69.151,167.666c0,0.417,0.112,1.026,0.646,1.56c0,0,0,0,0.001,0l20.592,20.592c0.534,0.534,1.144,0.646,1.561,0.646  s1.025-0.112,1.56-0.646l20.592-20.592c0.535-0.535,0.646-1.144,0.646-1.561s-0.111-1.026-0.646-1.56L93.51,145.513  c-0.534-0.535-1.143-0.646-1.56-0.646s-1.026,0.112-1.561,0.646l-20.592,20.592C69.264,166.64,69.151,167.249,69.151,167.666z   M417.943,240.375c-2.929-2.928-7.678-2.929-10.606,0c-2.93,2.929-2.93,7.678-0.001,10.607l6.863,6.864  c1.465,1.464,3.384,2.197,5.304,2.197c1.919,0,3.839-0.732,5.303-2.196c2.93-2.929,2.93-7.678,0.001-10.607L417.943,240.375z   M381.752,255.338c-4.143,0-7.5,3.358-7.5,7.5v9.707c0,4.142,3.357,7.5,7.5,7.5s7.5-3.358,7.5-7.5v-9.707  C389.252,258.696,385.895,255.338,381.752,255.338z"/>
<g>
</g>
<g>
</g>
<g>
</g>
<g>
</g>
<g>
</g>
<g>
</g>
<g>
</g>
<g>
</g>
<g>
</g>
<g>
</g>
<g>
</g>
<g>
</g>
<g>
</g>
<g>
</g>
<g>
</g>
</svg>
