<?xml version="1.0" standalone="no"?>
<!DOCTYPE svg PUBLIC "-//W3C//DTD SVG 20010904//EN"
 "http://www.w3.org/TR/2001/REC-SVG-20010904/DTD/svg10.dtd">
<svg version="1.0" xmlns="http://www.w3.org/2000/svg"
 width="512.000000pt" height="512.000000pt" viewBox="0 0 512.000000 512.000000"
 preserveAspectRatio="xMidYMid meet">
<metadata>
Created by potrace 1.14, written by Peter Selinger 2001-2017
</metadata>
<g transform="translate(0.000000,512.000000) scale(0.100000,-0.100000)"
fill="#000000" stroke="none">
<path d="M4066 4673 c-3 -4 -6 -401 -6 -883 l0 -877 -175 1 -175 1 -1 -40 c-3
-123 -3 -2366 -1 -2397 l4 -37 704 0 704 1 -2 1236 -3 1236 -175 -1 -175 -1 1
883 1 883 -347 1 c-191 0 -350 -3 -354 -6z"/>
<path d="M1888 2735 c-2 -1 -39 -5 -82 -9 -44 -4 -82 -9 -86 -11 -3 -2 -17 -6
-31 -9 -165 -33 -392 -146 -577 -287 -103 -80 -401 -385 -436 -448 -5 -9 -12
-18 -15 -21 -12 -9 -118 -155 -157 -215 -21 -33 -41 -62 -44 -65 -8 -8 -133
-217 -170 -285 -58 -106 -167 -329 -191 -393 -7 -18 -16 -22 -54 -22 -43 0
-44 -1 -40 -27 3 -16 21 -125 40 -243 19 -118 37 -225 40 -237 l5 -22 1586 0
c1207 0 1586 3 1589 12 5 15 9 34 41 227 14 85 27 166 30 180 2 14 7 44 11 68
l6 42 -42 0 c-22 0 -41 3 -42 8 -1 4 -2 36 -4 72 -2 69 -14 228 -20 270 -2 14
-6 46 -10 72 -6 41 -4 47 14 53 24 7 76 70 92 111 16 42 12 128 -7 166 -9 18
-28 45 -42 60 -33 36 -35 109 -3 139 59 55 81 170 46 242 -64 135 -228 172
-346 78 l-38 -31 -46 63 c-183 245 -427 395 -720 443 -22 3 -51 8 -64 11 -27
4 -229 12 -233 8z"/>
</g>
</svg>
